<?xml version="1.0" encoding="UTF-8" standalone="no"?>
<!DOCTYPE svg PUBLIC "-//W3C//DTD SVG 1.1//EN" "http://www.w3.org/Graphics/SVG/1.1/DTD/svg11.dtd">
<svg width="100%" height="100%" viewBox="0 0 1024 250" version="1.1" xmlns="http://www.w3.org/2000/svg" xmlns:xlink="http://www.w3.org/1999/xlink" xml:space="preserve" xmlns:serif="http://www.serif.com/" style="fill-rule:evenodd;clip-rule:evenodd;stroke-linejoin:round;stroke-miterlimit:2;">
    <g transform="matrix(1.16907,0,0,1.16907,-88.7386,-216.721)">
        <g transform="matrix(0.926728,0,0,0.926728,6.76422,29.7997)">
            <path d="M310.296,291.784C310.296,297.745 309.295,303.413 307.291,308.787C305.288,314.162 302.478,318.877 298.863,322.933C295.247,326.988 290.947,330.213 285.963,332.607C280.979,335.002 275.507,336.199 269.546,336.199C265.832,336.199 262.363,335.686 259.138,334.66C255.913,333.634 252.884,331.997 250.05,329.749L250.196,370.793L228.795,370.793L228.795,249.127L250.196,249.127L250.196,253.525C252.64,251.57 255.547,250.007 258.918,248.834C262.29,247.662 265.832,247.075 269.546,247.075C274.725,247.075 279.758,248.223 284.644,250.52C289.53,252.816 293.879,255.968 297.69,259.975C301.501,263.981 304.555,268.696 306.852,274.12C309.148,279.544 310.296,285.432 310.296,291.784ZM288.748,291.93C288.748,287.923 288.162,284.308 286.989,281.083C285.817,277.858 284.18,275.097 282.079,272.801C279.978,270.504 277.486,268.745 274.603,267.524C271.72,266.302 268.52,265.691 265.002,265.691C262.754,265.691 260.189,266.156 257.306,267.084C254.423,268.012 252.004,269.258 250.05,270.822L250.05,311.426C254.643,315.628 259.773,317.729 265.441,317.729C268.764,317.729 271.867,317.094 274.749,315.823C277.632,314.553 280.1,312.77 282.152,310.473C284.204,308.177 285.817,305.44 286.989,302.264C288.162,299.088 288.748,295.644 288.748,291.93Z" style="fill:rgb(21,51,83);fill-rule:nonzero;"/>
            <path d="M359.256,333.56C357.594,334.342 355.713,334.977 353.612,335.466C351.511,335.954 349.337,336.199 347.089,336.199C343.962,336.199 340.957,335.783 338.074,334.953C335.191,334.122 332.675,332.778 330.525,330.922C328.375,329.065 326.665,326.646 325.395,323.666C324.124,320.685 323.489,317.094 323.489,312.892L323.489,212.335L345.037,212.335L345.037,309.227C345.037,312.745 345.745,315.164 347.162,316.483C348.579,317.802 350.265,318.462 352.22,318.462C354.663,318.462 357.008,317.729 359.256,316.263L359.256,333.56Z" style="fill:rgb(21,51,83);fill-rule:nonzero;"/>
            <path d="M444.568,334L423.46,334L423.46,327.55C422.092,328.918 420.504,330.116 418.696,331.142C416.888,332.168 414.982,333.047 412.979,333.78C410.976,334.513 408.923,335.075 406.822,335.466C404.721,335.857 402.742,336.052 400.886,336.052C396.586,336.052 392.457,335.368 388.499,334C384.542,332.632 381.048,330.531 378.018,327.697C374.989,324.863 372.57,321.198 370.763,316.703C368.955,312.208 368.051,306.882 368.051,300.725L368.051,249.274L389.159,249.274L389.159,299.699C389.159,302.729 389.623,305.392 390.551,307.688C391.48,309.985 392.701,311.89 394.216,313.405C395.731,314.92 397.49,316.043 399.493,316.776C401.496,317.509 403.573,317.876 405.723,317.876C412.564,317.876 418.476,315.53 423.46,310.84L423.46,249.274L444.568,249.274L444.568,334Z" style="fill:rgb(21,51,83);fill-rule:nonzero;"/>
            <path d="M523.138,258.069L511.85,275.952C509.798,273.705 507.526,271.726 505.034,270.016C502.542,268.306 500.026,267.45 497.485,267.45C496.117,267.45 494.627,267.768 493.014,268.403C491.402,269.038 489.887,270.089 488.47,271.555C487.053,273.021 485.856,274.951 484.879,277.345C483.902,279.739 483.413,282.695 483.413,286.213L483.413,334L462.158,334L462.158,249.274L483.413,249.274L483.413,258.362C485.954,254.746 488.763,251.961 491.842,250.007C494.92,248.052 498.365,247.075 502.176,247.075C505.889,247.075 509.53,248.077 513.096,250.08C516.663,252.083 520.01,254.746 523.138,258.069Z" style="fill:rgb(21,51,83);fill-rule:nonzero;"/>
            <path d="M599.362,334L578.107,334L578.107,329.456C574.393,331.997 570.46,333.756 566.307,334.733C562.154,335.71 557.878,336.199 553.481,336.199C549.376,336.199 545.663,335.588 542.34,334.366C539.018,333.145 536.135,331.386 533.692,329.089C531.249,326.793 529.367,324.081 528.048,320.954C526.729,317.827 526.069,314.358 526.069,310.546C526.069,305.758 527.12,301.58 529.221,298.013C531.322,294.447 534.18,291.466 537.796,289.072C541.412,286.678 545.638,284.894 550.476,283.721C555.313,282.549 560.517,281.962 566.087,281.962L578.253,281.962C578.253,276.978 576.641,273.021 573.416,270.089C570.191,267.157 565.549,265.691 559.491,265.691C556.559,265.691 553.529,266.229 550.402,267.304C547.275,268.379 544.148,270.333 541.021,273.167L528.561,260.561C533.056,256.261 538.26,252.939 544.172,250.593C550.085,248.248 556.168,247.075 562.422,247.075C568.286,247.075 573.514,248.004 578.107,249.86C582.7,251.717 586.413,254.111 589.247,257.043C592.961,260.756 595.575,264.91 597.09,269.503C598.604,274.096 599.362,279.959 599.362,287.093L599.362,334ZM578.107,312.892L578.107,297.207L568.432,297.207C565.501,297.207 562.74,297.403 560.15,297.794C557.561,298.184 555.313,298.844 553.407,299.772C551.502,300.701 549.987,301.898 548.863,303.364C547.739,304.83 547.177,306.589 547.177,308.641C547.177,311.573 548.326,313.967 550.622,315.823C552.919,317.68 555.875,318.609 559.491,318.609C562.618,318.609 565.72,318.12 568.799,317.143C571.877,316.166 574.98,314.749 578.107,312.892Z" style="fill:rgb(21,51,83);fill-rule:nonzero;"/>
            <path d="M651.253,333.56C649.591,334.342 647.71,334.977 645.609,335.466C643.508,335.954 641.334,336.199 639.086,336.199C635.959,336.199 632.954,335.783 630.071,334.953C627.188,334.122 624.672,332.778 622.522,330.922C620.372,329.065 618.662,326.646 617.392,323.666C616.121,320.685 615.486,317.094 615.486,312.892L615.486,212.335L637.034,212.335L637.034,309.227C637.034,312.745 637.742,315.164 639.159,316.483C640.576,317.802 642.262,318.462 644.217,318.462C646.66,318.462 649.005,317.729 651.253,316.263L651.253,333.56Z" style="fill:rgb(21,51,83);fill-rule:nonzero;"/>
            <path d="M683.501,234.469L661.514,234.469L661.514,212.481L683.501,212.481L683.501,234.469ZM683.208,334L661.807,334L661.807,249.127L683.208,249.127L683.208,334Z" style="fill:rgb(21,51,83);fill-rule:nonzero;"/>
            <path d="M764.563,310.253C764.563,314.455 763.586,318.193 761.631,321.467C759.677,324.741 757.136,327.477 754.009,329.676C750.882,331.875 747.363,333.536 743.455,334.66C739.546,335.783 735.686,336.345 731.874,336.345C725.425,336.345 719.488,335.148 714.064,332.754C708.641,330.36 703.877,326.524 699.772,321.247L712.525,308.348C715.066,311.573 717.998,314.089 721.32,315.897C724.643,317.705 728.21,318.609 732.021,318.609C735.344,318.609 738.104,317.998 740.303,316.776C742.502,315.555 743.601,313.722 743.601,311.279C743.601,308.739 742.038,306.613 738.91,304.903C735.783,303.193 731.386,301.507 725.718,299.846C722.395,298.868 719.17,297.623 716.043,296.108C712.916,294.593 710.131,292.736 707.688,290.538C705.245,288.339 703.29,285.822 701.824,282.988C700.359,280.154 699.626,276.881 699.626,273.167C699.626,269.063 700.578,265.374 702.484,262.1C704.39,258.826 706.882,256.09 709.96,253.891C713.038,251.693 716.532,250.007 720.441,248.834C724.35,247.662 728.307,247.075 732.314,247.075C745.214,247.075 755.768,251.961 763.976,261.734L751.37,274.487C748.927,271.457 746.142,269.063 743.015,267.304C739.888,265.545 736.467,264.665 732.754,264.665C731.483,264.665 730.14,264.836 728.723,265.178C727.306,265.52 725.987,266.009 724.765,266.644C723.543,267.279 722.542,268.11 721.76,269.136C720.978,270.162 720.587,271.311 720.587,272.581C720.587,274.829 722.078,276.783 725.058,278.444C728.039,280.106 732.314,281.767 737.884,283.428C741.5,284.503 744.92,285.871 748.145,287.533C751.37,289.194 754.204,291.124 756.647,293.323C759.09,295.521 761.02,298.013 762.437,300.799C763.854,303.584 764.563,306.735 764.563,310.253Z" style="fill:rgb(21,51,83);fill-rule:nonzero;"/>
            <path d="M903.085,334L882.124,334L882.124,283.428C882.124,277.467 880.682,272.947 877.8,269.869C874.917,266.791 871.374,265.252 867.172,265.252C863.947,265.252 860.893,265.765 858.011,266.791C855.128,267.817 852.318,269.503 849.582,271.848C850.462,275.268 850.901,279.128 850.901,283.428L850.901,334L829.793,334L829.793,283.428C829.793,277.467 828.352,272.947 825.469,269.869C822.586,266.791 819.092,265.252 814.988,265.252C811.763,265.252 808.929,265.814 806.486,266.937C804.043,268.061 801.502,269.845 798.864,272.288L798.864,334L777.755,334L777.755,249.274L798.864,249.274L798.864,255.577C801.502,253.036 804.605,250.984 808.172,249.421C811.739,247.857 815.379,247.075 819.092,247.075C823.197,247.075 827.326,248.004 831.479,249.86C835.632,251.717 839.272,254.404 842.399,257.922C846.797,254.014 851.243,251.228 855.739,249.567C860.234,247.906 865.169,247.075 870.544,247.075C874.941,247.075 879.119,247.735 883.077,249.054C887.034,250.373 890.479,252.474 893.411,255.357C896.343,258.24 898.688,261.905 900.447,266.351C902.206,270.797 903.085,276.148 903.085,282.402L903.085,334Z" style="fill:rgb(21,51,83);fill-rule:nonzero;"/>
            <path d="M1006.72,291.49C1006.72,292.859 1006.65,294.276 1006.5,295.741C1006.36,297.207 1006.18,298.722 1005.99,300.285L938.266,300.285C939.048,302.729 940.147,305.049 941.564,307.248C942.981,309.447 944.716,311.353 946.768,312.965C948.82,314.578 951.141,315.848 953.731,316.776C956.32,317.705 959.179,318.169 962.306,318.169C966.117,318.169 969.928,317.509 973.739,316.19C977.551,314.871 980.727,313.087 983.267,310.84L996.607,324.179C990.743,328.576 985.002,331.679 979.383,333.487C973.764,335.295 967.827,336.199 961.573,336.199C955.221,336.199 949.284,335.026 943.763,332.681C938.241,330.335 933.453,327.159 929.397,323.153C925.342,319.146 922.142,314.431 919.796,309.007C917.451,303.584 916.278,297.794 916.278,291.637C916.278,285.48 917.451,279.69 919.796,274.267C922.142,268.843 925.366,264.128 929.471,260.121C933.575,256.115 938.364,252.939 943.836,250.593C949.309,248.248 955.172,247.075 961.426,247.075C967.387,247.075 973.104,248.175 978.577,250.373C984.049,252.572 988.886,255.626 993.089,259.535C997.291,263.444 1000.61,268.11 1003.06,273.534C1005.5,278.957 1006.72,284.943 1006.72,291.49ZM984.587,283.282C982.925,277.907 979.969,273.583 975.718,270.309C971.467,267.035 966.654,265.398 961.28,265.398C956.003,265.398 951.263,267.035 947.061,270.309C942.859,273.583 939.927,277.907 938.266,283.282L984.587,283.282Z" style="fill:rgb(21,51,83);fill-rule:nonzero;"/>
        </g>
        <g transform="matrix(1,0,0,1,-2,0)">
            <rect x="90" y="319" width="102" height="19" style="fill:rgb(215,30,72);"/>
        </g>
    </g>
</svg>
